<mxfile host="app.diagrams.net" agent="Mozilla/5.0 (Windows NT 10.0; Win64; x64) AppleWebKit/537.36 (KHTML, like Gecko) Chrome/133.0.0.0 Safari/537.36" version="26.0.16">
  <diagram name="1 oldal" id="Kkj2MLQiuW0QALCfhkg7">
    <mxGraphModel dx="819" dy="430" grid="1" gridSize="10" guides="1" tooltips="1" connect="1" arrows="1" fold="1" page="1" pageScale="1" pageWidth="827" pageHeight="1169" math="0" shadow="0">
      <root>
        <mxCell id="0" />
        <mxCell id="1" parent="0" />
        <mxCell id="0VGbrk_x2BdO5AGPf7q1-1" value="&lt;p style=&quot;margin: 4px 0px 0px;&quot;&gt;&lt;b&gt;&amp;nbsp;5&lt;/b&gt;&lt;/p&gt;&lt;hr size=&quot;1&quot; style=&quot;border-style:solid;&quot;&gt;&amp;nbsp;&lt;br&gt;&lt;div style=&quot;height:2px;&quot;&gt;&lt;/div&gt;" style="verticalAlign=top;align=left;overflow=fill;html=1;whiteSpace=wrap;" vertex="1" parent="1">
          <mxGeometry x="330" y="190" width="180" height="210" as="geometry" />
        </mxCell>
        <mxCell id="0VGbrk_x2BdO5AGPf7q1-2" value="" style="line;strokeWidth=1;direction=south;html=1;perimeter=backbonePerimeter;points=[];outlineConnect=0;" vertex="1" parent="1">
          <mxGeometry x="350" y="190" width="10" height="24" as="geometry" />
        </mxCell>
        <mxCell id="0VGbrk_x2BdO5AGPf7q1-8" style="edgeStyle=orthogonalEdgeStyle;rounded=0;orthogonalLoop=1;jettySize=auto;html=1;exitX=0.5;exitY=1;exitDx=0;exitDy=0;entryX=0.5;entryY=0;entryDx=0;entryDy=0;" edge="1" parent="1" source="0VGbrk_x2BdO5AGPf7q1-4" target="0VGbrk_x2BdO5AGPf7q1-6">
          <mxGeometry relative="1" as="geometry" />
        </mxCell>
        <mxCell id="0VGbrk_x2BdO5AGPf7q1-9" value="Vonal ára" style="edgeLabel;html=1;align=center;verticalAlign=middle;resizable=0;points=[];" vertex="1" connectable="0" parent="0VGbrk_x2BdO5AGPf7q1-8">
          <mxGeometry x="-0.2" relative="1" as="geometry">
            <mxPoint x="30" as="offset" />
          </mxGeometry>
        </mxCell>
        <mxCell id="0VGbrk_x2BdO5AGPf7q1-4" value="&lt;p style=&quot;margin: 4px 0px 0px;&quot;&gt;&lt;b&gt;&amp;nbsp;5.1&lt;/b&gt;&lt;/p&gt;&lt;hr size=&quot;1&quot; style=&quot;border-style:solid;&quot;&gt;&lt;div style=&quot;height:2px;&quot;&gt;&amp;nbsp;Vonalszám kiválasztása&lt;/div&gt;" style="verticalAlign=top;align=left;overflow=fill;html=1;whiteSpace=wrap;" vertex="1" parent="1">
          <mxGeometry x="350" y="230" width="140" height="60" as="geometry" />
        </mxCell>
        <mxCell id="0VGbrk_x2BdO5AGPf7q1-5" value="" style="line;strokeWidth=1;direction=south;html=1;perimeter=backbonePerimeter;points=[];outlineConnect=0;" vertex="1" parent="1">
          <mxGeometry x="370" y="230" width="10" height="24" as="geometry" />
        </mxCell>
        <mxCell id="0VGbrk_x2BdO5AGPf7q1-6" value="&lt;p style=&quot;margin: 4px 0px 0px;&quot;&gt;&lt;b&gt;&amp;nbsp;5.2&lt;/b&gt;&lt;/p&gt;&lt;hr size=&quot;1&quot; style=&quot;border-style:solid;&quot;&gt;&lt;div style=&quot;height:2px;&quot;&gt;&amp;nbsp;Jegy kifizetése&lt;/div&gt;" style="verticalAlign=top;align=left;overflow=fill;html=1;whiteSpace=wrap;" vertex="1" parent="1">
          <mxGeometry x="350" y="320" width="140" height="60" as="geometry" />
        </mxCell>
        <mxCell id="0VGbrk_x2BdO5AGPf7q1-7" value="" style="line;strokeWidth=1;direction=south;html=1;perimeter=backbonePerimeter;points=[];outlineConnect=0;" vertex="1" parent="1">
          <mxGeometry x="370" y="320" width="10" height="24" as="geometry" />
        </mxCell>
        <mxCell id="0VGbrk_x2BdO5AGPf7q1-13" style="edgeStyle=orthogonalEdgeStyle;rounded=0;orthogonalLoop=1;jettySize=auto;html=1;exitX=0;exitY=0.5;exitDx=0;exitDy=0;entryX=1;entryY=0.25;entryDx=0;entryDy=0;" edge="1" parent="1" source="0VGbrk_x2BdO5AGPf7q1-10" target="0VGbrk_x2BdO5AGPf7q1-4">
          <mxGeometry relative="1" as="geometry" />
        </mxCell>
        <mxCell id="0VGbrk_x2BdO5AGPf7q1-10" value="L3&amp;nbsp; &amp;nbsp; &amp;nbsp;Menetrend" style="html=1;dashed=0;whiteSpace=wrap;shape=mxgraph.dfd.dataStoreID;align=left;spacingLeft=3;points=[[0,0],[0.5,0],[1,0],[0,0.5],[1,0.5],[0,1],[0.5,1],[1,1]];" vertex="1" parent="1">
          <mxGeometry x="559.9999999999999" y="224" width="100" height="30" as="geometry" />
        </mxCell>
        <mxCell id="0VGbrk_x2BdO5AGPf7q1-12" style="edgeStyle=orthogonalEdgeStyle;rounded=0;orthogonalLoop=1;jettySize=auto;html=1;exitX=0;exitY=0.5;exitDx=0;exitDy=0;entryX=1;entryY=0.75;entryDx=0;entryDy=0;" edge="1" parent="1" source="0VGbrk_x2BdO5AGPf7q1-11" target="0VGbrk_x2BdO5AGPf7q1-4">
          <mxGeometry relative="1" as="geometry" />
        </mxCell>
        <mxCell id="0VGbrk_x2BdO5AGPf7q1-11" value="L4&amp;nbsp; &amp;nbsp; &amp;nbsp;Vonatok" style="html=1;dashed=0;whiteSpace=wrap;shape=mxgraph.dfd.dataStoreID;align=left;spacingLeft=3;points=[[0,0],[0.5,0],[1,0],[0,0.5],[1,0.5],[0,1],[0.5,1],[1,1]];" vertex="1" parent="1">
          <mxGeometry x="559.9999999999999" y="260" width="100" height="30" as="geometry" />
        </mxCell>
        <mxCell id="0VGbrk_x2BdO5AGPf7q1-15" style="edgeStyle=orthogonalEdgeStyle;rounded=0;orthogonalLoop=1;jettySize=auto;html=1;exitX=0;exitY=0.5;exitDx=0;exitDy=0;entryX=1;entryY=0.5;entryDx=0;entryDy=0;startArrow=classic;startFill=1;" edge="1" parent="1" source="0VGbrk_x2BdO5AGPf7q1-14" target="0VGbrk_x2BdO5AGPf7q1-6">
          <mxGeometry relative="1" as="geometry" />
        </mxCell>
        <mxCell id="0VGbrk_x2BdO5AGPf7q1-14" value="L5&amp;nbsp; &amp;nbsp; Jegyek" style="html=1;dashed=0;whiteSpace=wrap;shape=mxgraph.dfd.dataStoreID;align=left;spacingLeft=3;points=[[0,0],[0.5,0],[1,0],[0,0.5],[1,0.5],[0,1],[0.5,1],[1,1]];" vertex="1" parent="1">
          <mxGeometry x="559.9999999999999" y="335" width="100" height="30" as="geometry" />
        </mxCell>
        <mxCell id="0VGbrk_x2BdO5AGPf7q1-17" style="edgeStyle=orthogonalEdgeStyle;rounded=0;orthogonalLoop=1;jettySize=auto;html=1;exitX=1;exitY=0;exitDx=0;exitDy=0;" edge="1" parent="1" source="0VGbrk_x2BdO5AGPf7q1-16" target="0VGbrk_x2BdO5AGPf7q1-4">
          <mxGeometry relative="1" as="geometry" />
        </mxCell>
        <mxCell id="0VGbrk_x2BdO5AGPf7q1-18" value="Honnan, hova" style="edgeLabel;html=1;align=center;verticalAlign=middle;resizable=0;points=[];" vertex="1" connectable="0" parent="0VGbrk_x2BdO5AGPf7q1-17">
          <mxGeometry x="0.0811" y="2" relative="1" as="geometry">
            <mxPoint x="-23" y="-20" as="offset" />
          </mxGeometry>
        </mxCell>
        <mxCell id="0VGbrk_x2BdO5AGPf7q1-19" style="edgeStyle=orthogonalEdgeStyle;rounded=0;orthogonalLoop=1;jettySize=auto;html=1;exitX=1;exitY=0.5;exitDx=0;exitDy=0;entryX=0;entryY=0.25;entryDx=0;entryDy=0;" edge="1" parent="1" source="0VGbrk_x2BdO5AGPf7q1-16" target="0VGbrk_x2BdO5AGPf7q1-6">
          <mxGeometry relative="1" as="geometry" />
        </mxCell>
        <mxCell id="0VGbrk_x2BdO5AGPf7q1-20" value="Bankkártya adatok" style="edgeLabel;html=1;align=center;verticalAlign=middle;resizable=0;points=[];" vertex="1" connectable="0" parent="0VGbrk_x2BdO5AGPf7q1-19">
          <mxGeometry x="-0.016" y="1" relative="1" as="geometry">
            <mxPoint x="-16" y="6" as="offset" />
          </mxGeometry>
        </mxCell>
        <mxCell id="0VGbrk_x2BdO5AGPf7q1-16" value="Tag" style="shape=ellipse;html=1;dashed=0;whiteSpace=wrap;perimeter=ellipsePerimeter;" vertex="1" parent="1">
          <mxGeometry x="140" y="270" width="100" height="50" as="geometry" />
        </mxCell>
        <mxCell id="0VGbrk_x2BdO5AGPf7q1-21" style="edgeStyle=orthogonalEdgeStyle;rounded=0;orthogonalLoop=1;jettySize=auto;html=1;exitX=0;exitY=0.75;exitDx=0;exitDy=0;entryX=0.7;entryY=1;entryDx=0;entryDy=0;entryPerimeter=0;" edge="1" parent="1" source="0VGbrk_x2BdO5AGPf7q1-6" target="0VGbrk_x2BdO5AGPf7q1-16">
          <mxGeometry relative="1" as="geometry" />
        </mxCell>
        <mxCell id="0VGbrk_x2BdO5AGPf7q1-22" value="Visszaigazolás" style="edgeLabel;html=1;align=center;verticalAlign=middle;resizable=0;points=[];" vertex="1" connectable="0" parent="0VGbrk_x2BdO5AGPf7q1-21">
          <mxGeometry x="-0.2216" y="1" relative="1" as="geometry">
            <mxPoint y="14" as="offset" />
          </mxGeometry>
        </mxCell>
      </root>
    </mxGraphModel>
  </diagram>
</mxfile>
